<?xml version="1.0" encoding="UTF-8"?>
<svg version="1.1" xmlns="http://www.w3.org/2000/svg" width="500" height="500">
<path d="M0 0 C0.89348227 -0.00523668 1.78696454 -0.01047336 2.70752203 -0.01586872 C5.70761709 -0.03089528 8.70754199 -0.03157446 11.70767212 -0.03224182 C13.85613799 -0.03986147 16.00460113 -0.04828863 18.15306091 -0.0574646 C23.99395497 -0.0794345 29.83479666 -0.08821176 35.67572737 -0.09329104 C39.32349362 -0.09693139 42.9712461 -0.10316974 46.61900711 -0.11029243 C59.34078831 -0.13479468 72.06252868 -0.1478407 84.78433228 -0.15138245 C96.64957053 -0.15501927 108.51455036 -0.18492333 120.3797096 -0.22678703 C130.56154977 -0.26145431 140.74330415 -0.27693026 150.92520297 -0.27762848 C157.0086578 -0.27842245 163.09184943 -0.28721641 169.17524338 -0.31562614 C174.89627272 -0.34174581 180.61681949 -0.34404586 186.33788109 -0.3279705 C188.43814964 -0.32615122 190.53844555 -0.33288975 192.63865471 -0.34878922 C195.50520191 -0.369168 198.37004763 -0.35874609 201.23657227 -0.34057617 C202.06848441 -0.35377614 202.90039656 -0.36697611 203.75751817 -0.38057607 C207.860266 -0.32114113 210.46069726 0.03287266 213.71846962 2.64070034 C216.57974876 5.62275173 217.54237919 7.21300906 218.24526978 11.27415466 C217.75242196 18.55894898 216.07229341 25.23341686 214.08901978 32.24290466 C213.7590802 33.43029236 213.42914063 34.61768005 213.08920288 35.84104919 C212.17440424 39.12727729 211.25331049 42.41161647 210.32933044 45.69526672 C209.33516445 49.2338712 208.34891015 52.7746814 207.36148071 56.31517029 C205.38649247 63.39096373 203.40315034 70.46439208 201.41704178 77.53707123 C199.66499822 83.77679459 197.91628465 90.01744471 196.1690979 96.25852966 C187.57023399 126.97064083 187.57023399 126.97064083 183.24990845 142.29319763 C182.98570571 143.23026236 182.72150297 144.16732708 182.44929409 145.1327877 C181.40283782 148.84396891 180.35630346 152.55512798 179.30930138 156.26615524 C176.43584349 166.45280451 173.58028622 176.64374051 170.77819824 186.8502655 C169.4990294 191.50465104 168.20720569 196.15546071 166.91287231 200.8056488 C166.35186287 202.83521358 165.79735509 204.86658912 165.25003052 206.89988708 C164.5215665 209.60508359 163.77108416 212.30319055 163.01480103 215.00071716 C162.81898941 215.75353973 162.6231778 216.5063623 162.4214325 217.28199768 C160.89946608 222.58064452 158.39737124 226.59025951 154.24526978 230.27415466 C150.38725902 231.56015825 146.74523438 231.41880593 142.72468567 231.41459656 C141.84430848 231.41756768 140.96393129 231.4205388 140.056876 231.42359996 C137.09516896 231.43229904 134.13350227 231.43379623 131.17178345 231.43528748 C129.05302341 231.43991478 126.93426421 231.44493932 124.81550598 231.45033264 C119.05100211 231.46346675 113.2865099 231.46990353 107.5219934 231.4743433 C103.92231256 231.47727228 100.32263493 231.48137674 96.7229557 231.48584747 C85.46544763 231.49952481 74.20794686 231.50919042 62.95043105 231.51304936 C49.9458087 231.51753142 36.9412914 231.53508523 23.936701 231.56404996 C13.89076782 231.58564998 3.84486422 231.59575274 -6.20109195 231.59709048 C-12.20401111 231.59813968 -18.20683157 231.60407187 -24.20972633 231.6219101 C-29.85595432 231.63836177 -35.5020091 231.64056036 -41.14825249 231.63177109 C-43.22110075 231.63099917 -45.29395821 231.63536374 -47.36678314 231.64522934 C-50.19579452 231.65790481 -53.02418835 231.6520959 -55.85319519 231.64164734 C-56.67411661 231.64970374 -57.49503804 231.65776015 -58.34083587 231.66606069 C-63.21270003 231.62395653 -66.52867051 230.9561086 -70.75473022 228.27415466 C-74.07835242 224.51321376 -75.14704043 221.77937064 -75.03134155 216.7780304 C-74.42085815 211.25195672 -72.69686667 205.94832769 -71.16098022 200.62181091 C-70.77844925 199.2669929 -70.39686038 197.91190858 -70.0161438 196.55657959 C-68.98868156 192.9084488 -67.94863123 189.26401636 -66.90635681 185.6200943 C-65.80472817 181.75975072 -64.71529374 177.8959696 -63.62484741 174.03245544 C-61.84742872 167.73955637 -60.06404488 161.4483806 -58.2762146 155.15843201 C-55.13383162 144.10013429 -52.03259043 133.03041967 -48.93307495 121.96003723 C-47.99958978 118.63082158 -47.06274784 115.30256841 -46.12484741 111.97459412 C-42.76311511 100.040106 -39.42493412 88.09973206 -36.12627029 76.14766884 C-34.0415628 68.59426699 -31.94909574 61.04303997 -29.8521843 53.4930172 C-28.55163343 48.80813067 -27.255703 44.12206472 -25.97018433 39.43302917 C-24.75826221 35.01251011 -23.5350984 30.59525409 -22.30360413 26.18014908 C-21.84818394 24.53936599 -21.39697886 22.89740643 -20.95024109 21.25423813 C-20.33339864 18.98775164 -19.70167645 16.72592048 -19.06625366 14.46458435 C-18.89066547 13.80521063 -18.71507729 13.14583691 -18.53416824 12.46648216 C-17.17322801 7.71246556 -15.27568532 4.05432476 -11.17030525 1.15531445 C-7.50706203 -0.18097301 -3.85031717 -0.01111805 0 0 Z " fill="#07F2BE" transform="translate(138.75473022460938,2.7258453369140625)"/>
<path d="M0 0 C0.87235894 -0.00367669 1.74471789 -0.00735338 2.64351195 -0.01114148 C5.57213627 -0.02217112 8.50072509 -0.02602092 11.42936707 -0.02983093 C13.52694817 -0.03609602 15.62452816 -0.04274286 17.72210693 -0.04974365 C24.6143466 -0.07077728 31.50658647 -0.08114391 38.39884949 -0.09111023 C40.77113545 -0.09515774 43.14342129 -0.09927466 45.51570702 -0.10346031 C56.65841547 -0.12250873 67.80111729 -0.13674172 78.94383889 -0.14507228 C91.81037173 -0.15485033 104.67673279 -0.18118624 117.54320508 -0.22157317 C127.48641412 -0.25171455 137.42957386 -0.2665392 147.37282771 -0.26985329 C153.31264312 -0.27220561 159.25227494 -0.28119026 165.1920414 -0.30631447 C170.77922698 -0.32956607 176.36610769 -0.33384002 181.95332909 -0.32355309 C184.00318795 -0.32305694 186.05306167 -0.32940038 188.10287476 -0.34310913 C190.90317777 -0.36078838 193.7023819 -0.35374137 196.50268555 -0.34057617 C197.7170024 -0.35703004 197.7170024 -0.35703004 198.9558509 -0.37381631 C204.56271873 -0.31025331 207.8085199 0.96051364 212.44181824 4.14717102 C215.55383753 7.66074119 215.77513219 10.75408775 215.70985413 15.36506653 C215.14655119 21.21192401 213.30647196 26.79411656 211.66447449 32.41279602 C211.26134964 33.82514292 210.85932908 35.23780541 210.45832825 36.65075684 C209.60045867 39.66536285 208.73543213 42.67778148 207.86451721 45.68864441 C206.48989465 50.44117784 205.13096121 55.19810233 203.77507019 59.95600891 C202.38063775 64.84714314 200.98556752 69.73808393 199.5852356 74.62753296 C196.54052182 85.26209371 193.53612183 95.90710733 190.57463074 106.56513977 C190.28845414 107.59482187 190.28845414 107.59482187 189.9964962 108.64530563 C188.36011474 114.53497585 186.72760158 120.42571685 185.09516907 126.31648254 C181.43832712 139.50528185 177.72644669 152.67304465 173.87011719 165.80499268 C171.20875753 174.88885759 168.72076086 184.01430961 166.27970886 193.15937805 C164.24929969 200.75142246 162.14751225 208.31681318 159.85588074 215.83467102 C159.65949005 216.49410706 159.46309937 217.15354309 159.26075745 217.83296204 C157.78425082 222.59087641 156.38232635 226.61941011 152.39028072 229.76234531 C148.37836686 231.64664992 144.98476815 231.56658297 140.60479736 231.53485107 C139.71454422 231.54023661 138.82429108 231.54562215 137.90706056 231.55117089 C134.92379558 231.56547906 131.94097253 231.55833964 128.95768738 231.55122375 C126.8189254 231.55692581 124.68016647 231.56388943 122.54141235 231.57202148 C116.73152973 231.58998595 110.92179787 231.58877831 105.1118958 231.5830791 C100.26332395 231.57999205 95.41478126 231.58607431 90.56621355 231.59211785 C79.12897189 231.60617223 67.69180492 231.60459412 56.25456238 231.59321594 C44.45124609 231.58173314 32.64815698 231.59581118 20.84487063 231.62261242 C10.71395804 231.64475586 0.58311683 231.65140986 -9.54781824 231.64553601 C-15.59990633 231.64216208 -21.65184878 231.64461054 -27.70391655 231.66178703 C-33.39455715 231.67723241 -39.08486073 231.67332713 -44.7754879 231.65448189 C-46.86445806 231.65078938 -48.95345305 231.65392365 -51.04240036 231.66436768 C-53.89338315 231.67753379 -56.743243 231.66606874 -59.59417725 231.64837646 C-60.42151633 231.65798147 -61.24885541 231.66758648 -62.10126537 231.67748255 C-67.3749545 231.61011127 -70.37316847 230.63894285 -74.55818176 227.14717102 C-77.76423924 222.70005904 -77.61915642 219.72573566 -76.95921326 214.57582092 C-76.32879323 210.75799225 -75.33204165 207.08745903 -74.25740051 203.37373352 C-74.02563614 202.5508786 -73.79387177 201.72802368 -73.55508423 200.88023376 C-72.79178755 198.17565761 -72.0186774 195.47398947 -71.24568176 192.77217102 C-70.69675665 190.83325503 -70.14859468 188.89412285 -69.60115051 186.95478821 C-68.47043633 182.95135214 -67.33649956 178.94885022 -66.20027161 174.94697571 C-64.71753233 169.71830636 -63.25185286 164.48507475 -61.79646301 159.24873352 C-61.57351059 158.44666473 -61.35055817 157.64459595 -61.12084961 156.81822205 C-60.66523631 155.17883954 -60.20966517 153.53944532 -59.75413513 151.90003967 C-55.79067101 137.64616787 -51.78909115 123.40302212 -47.77693176 109.16279602 C-47.46035866 108.03910331 -47.46035866 108.03910331 -47.13739014 106.89270973 C-44.95699758 99.15373345 -42.77533892 91.41511675 -40.5904007 83.67742252 C-36.60538477 69.56404226 -32.62516982 55.45017409 -28.74568176 41.30732727 C-28.19101429 39.29169676 -27.63632766 37.27607152 -27.08161926 35.26045227 C-26.09843008 31.68605997 -25.12582555 28.10903219 -24.15974426 24.52998352 C-23.73043914 22.96607642 -23.30077718 21.40226721 -22.87068176 19.83857727 C-22.69238831 19.16488602 -22.51409485 18.49119476 -22.33039856 17.79708862 C-20.78248864 12.22754134 -18.77793748 6.29755937 -14.55818176 2.20967102 C-9.9232411 -0.25264121 -5.13369945 -0.00115954 0 0 Z " fill="#17DEF0" transform="translate(223.5581817626953,265.8528289794922)"/>
<path d="M0 0 C0.94900177 -0.00708481 1.89800354 -0.01416962 2.87576294 -0.02146912 C3.90499374 -0.0189917 4.93422455 -0.01651428 5.99464417 -0.01396179 C7.63451294 -0.02162819 7.63451294 -0.02162819 9.30751038 -0.02944946 C12.92015563 -0.04334577 16.53261013 -0.04238868 20.14527893 -0.04008484 C22.65724763 -0.04397161 25.16921567 -0.04830624 27.68118286 -0.05307007 C32.94600547 -0.06053227 38.21077873 -0.06037925 43.4756012 -0.05497742 C49.55310681 -0.04893745 55.63038093 -0.06125167 61.70784706 -0.08254749 C67.56460131 -0.10231197 73.42126507 -0.10533438 79.27804756 -0.10181236 C81.76553453 -0.10232583 84.25302517 -0.10756838 86.74049187 -0.11762428 C90.21861996 -0.12995976 93.69621216 -0.12321391 97.17433167 -0.11161804 C98.20153824 -0.11926178 99.22874481 -0.12690552 100.28707886 -0.13478088 C105.65839985 -0.0951977 109.53329795 0.19240977 114.14918518 3.26069641 C118.01142932 7.42785456 118.60082626 10.62517321 118.4995575 16.05458069 C117.71325174 23.24974746 115.39116505 30.1862972 113.36402893 37.11225891 C112.86399698 38.85618621 112.36512325 40.60044596 111.86734009 42.34501648 C110.55499301 46.93241451 109.22683472 51.51508564 107.89527893 56.09693909 C106.56719104 60.67737867 105.25432759 65.26217342 103.94020081 69.84663391 C101.693152 77.68076167 99.42411787 85.5082945 97.14690208 93.33369827 C95.73245578 98.20813787 94.35864053 103.09133932 93.01686096 107.98628235 C92.70591995 109.10417145 92.39497894 110.22206055 92.07461548 111.37382507 C91.52714223 113.34812075 90.99094752 115.32560341 90.46972656 117.30699158 C88.94164295 122.7611931 87.27116192 126.30805286 83.14918518 130.26069641 C79.7651707 131.89513788 77.04698526 132.51281981 73.30509949 132.52812195 C71.88376457 132.5409169 71.88376457 132.5409169 70.43371582 132.55397034 C69.40605606 132.55306396 68.3783963 132.55215759 67.31959534 132.55122375 C66.22795578 132.55794098 65.13631622 132.5646582 64.01159668 132.57157898 C60.40376735 132.59057314 56.79612389 132.59448386 53.18824768 132.59663391 C50.67867455 132.60306058 48.16910218 132.60978884 45.65953064 132.61680603 C40.39890844 132.62878215 35.13833336 132.63257217 29.87770081 132.63130188 C23.80810935 132.63010076 17.73887366 132.65120036 11.6693722 132.68278921 C5.81795683 132.71215141 -0.03331835 132.71927642 -5.88479996 132.71808243 C-8.36867857 132.72044145 -10.85255986 132.72928184 -13.33639145 132.74474716 C-16.8120392 132.76436241 -20.28677316 132.75858583 -23.76243591 132.74653625 C-25.29785286 132.76339478 -25.29785286 132.76339478 -26.86428833 132.78059387 C-33.07390279 132.72594373 -36.77935088 131.91570032 -41.85081482 128.26069641 C-44.76801801 124.87297658 -45.15623513 122.12614091 -45.08747864 117.71485901 C-44.59282892 112.58542749 -43.01161821 107.68867198 -41.58909607 102.75288391 C-41.24676437 101.53352646 -40.90443268 100.31416901 -40.55172729 99.05786133 C-39.62618147 95.76204998 -38.68794594 92.46998581 -37.74661255 89.17865372 C-36.76971069 85.75712696 -35.80238453 82.33289516 -34.83421326 78.90888977 C-33.6556037 74.74275882 -32.47578105 70.57698762 -31.29060364 66.41271973 C-28.81010603 57.69210314 -26.38616288 48.95778123 -24.00315857 40.20991516 C-23.1409817 37.06902758 -22.27724974 33.92857336 -21.41267395 30.78834534 C-20.87493059 28.82434803 -20.34216646 26.85898006 -19.81459045 24.89222717 C-19.08556353 22.1789168 -18.33766114 19.47148898 -17.58518982 16.76460266 C-17.3805864 15.98300278 -17.17598297 15.20140289 -16.96517944 14.39611816 C-15.51060623 9.26171229 -13.68334519 6.02344781 -9.85081482 2.26069641 C-6.46498602 0.61818617 -3.74628758 0.00936856 0 0 Z " fill="#10E5DA" transform="translate(62.85081481933594,265.7393035888672)"/>
<path d="M0 0 C0.95741592 -0.00852997 1.91483185 -0.01705994 2.90126038 -0.02584839 C4.45913269 -0.02448883 4.45913269 -0.02448883 6.04847717 -0.02310181 C7.15147659 -0.02981903 8.25447601 -0.03653625 9.39089966 -0.04345703 C13.03600064 -0.06245067 16.68091768 -0.06636175 20.32606506 -0.06851196 C22.86045406 -0.07493819 25.39484231 -0.08166642 27.92922974 -0.08868408 C33.24113485 -0.10065975 38.55297143 -0.10445021 43.86488342 -0.10317993 C49.99697721 -0.10197819 56.12871923 -0.12309047 62.26072401 -0.15466726 C68.16979312 -0.1840071 74.07875509 -0.19115512 79.98790169 -0.18996048 C82.49772645 -0.19232128 85.00755378 -0.20117163 87.51733208 -0.21662521 C91.02670923 -0.23621283 94.53517927 -0.23047501 98.04457092 -0.21841431 C99.08112823 -0.22965332 100.11768555 -0.24089233 101.18565369 -0.25247192 C107.14138413 -0.20044045 110.58882015 0.27456629 115.11122131 4.26742554 C118.22561487 8.83520275 118.57057426 12.88813608 118.11122131 18.26742554 C117.45859176 21.61143007 116.53210449 24.85427476 115.57606506 28.12289429 C115.30588058 29.07836655 115.03569611 30.03383881 114.75732422 31.01826477 C113.86446347 34.16676542 112.9568558 37.31079953 112.04872131 40.45492554 C111.419714 42.65827785 110.79163734 44.86189604 110.16444397 47.06576538 C109.17881743 50.5266374 108.19182396 53.98708774 107.20045471 57.44631958 C104.75540324 65.97889232 102.35929419 74.52425964 99.98231506 83.07601929 C98.97690787 86.67971925 97.97057634 90.28315947 96.96379089 93.88647461 C96.31546299 96.21163474 95.66950212 98.53745627 95.02598572 100.86395264 C94.12196013 104.12824611 93.20762076 107.38948813 92.29090881 110.65023804 C92.02785446 111.60961777 91.76480011 112.5689975 91.49377441 113.55744934 C87.51493479 127.59737072 87.51493479 127.59737072 82.6716156 130.9624176 C77.71862714 132.77785958 73.20503764 132.69404992 67.96864319 132.67147827 C66.85574417 132.67834152 65.74284515 132.68520477 64.59622192 132.692276 C60.92400797 132.71055099 57.2522209 132.70670568 53.57997131 132.70101929 C51.02459067 132.70558036 48.46921125 132.71088571 45.91383362 132.71690369 C40.56079037 132.72583593 35.2079023 132.72364409 29.85487366 132.71347046 C23.67559518 132.70198571 17.49675054 132.71607477 11.3175292 132.74286693 C5.36092077 132.76772236 -0.59555318 132.77019764 -6.55221558 132.76375008 C-9.08157066 132.76359667 -11.61093402 132.76965663 -14.14025879 132.78204155 C-17.67590139 132.79691616 -21.21058792 132.78629948 -24.74620056 132.76913452 C-25.79053757 132.77880249 -26.83487457 132.78847046 -27.91085815 132.7984314 C-33.89335394 132.73760386 -37.32605838 132.24300995 -41.88877869 128.26742554 C-44.67990928 124.91806882 -45.24658558 122.21469257 -45.17460632 117.89379883 C-44.50922628 111.77984711 -42.54892172 105.86595628 -40.86534119 99.96664429 C-40.44001583 98.44791269 -40.01558654 96.9289299 -39.59199524 95.40971375 C-38.47066797 91.397761 -37.33684204 87.38944456 -36.20042419 83.38174438 C-35.08483956 79.4389212 -33.98150447 75.49267755 -32.87705994 71.54672241 C-30.9017622 64.49417091 -28.90466717 57.44799738 -26.90112686 50.40342522 C-25.52240156 45.54214587 -24.17360436 40.67354817 -22.84597969 35.79807186 C-21.96373873 32.56414997 -21.06982123 29.33351511 -20.17440414 26.10321999 C-19.75462313 24.57726003 -19.34022087 23.04980865 -18.93161392 21.52081871 C-18.36548178 19.4046141 -17.78039199 17.29449427 -17.19102478 15.18466187 C-16.86588898 13.98964554 -16.54075317 12.79462921 -16.20576477 11.56340027 C-14.37078877 6.97107041 -12.13141776 3.36116202 -7.52753925 1.11584759 C-4.85330622 0.25602033 -2.79817272 0.01132308 0 0 Z " fill="#0EE9D4" transform="translate(366.88877868652344,101.73257446289063)"/>
<path d="M0 0 C1.31722849 -0.00256327 1.31722849 -0.00256327 2.66106766 -0.00517833 C5.60300085 -0.00847205 8.54470587 0.0025286 11.48661804 0.01345825 C13.59570307 0.01402239 15.70478849 0.01370575 17.81387329 0.01257324 C23.54070164 0.01199883 29.2674464 0.02376746 34.9942553 0.03772116 C40.97869968 0.0502138 46.96314592 0.05139786 52.94760132 0.05377197 C64.28056284 0.05999105 75.61348584 0.07640768 86.94643039 0.09647095 C99.84835111 0.11881663 112.75027367 0.12982004 125.65220892 0.13986182 C152.1929806 0.16077351 178.73371806 0.19595782 205.27445984 0.24050903 C205.27445984 0.90050903 205.27445984 1.56050903 205.27445984 2.24050903 C206.26445984 2.73550903 206.26445984 2.73550903 207.27445984 3.24050903 C179.4241372 3.37097786 151.57381418 3.50136694 123.72349072 3.63166046 C110.79280772 3.69215657 97.86212485 3.75267902 84.93144226 3.81326294 C73.66422099 3.86605301 62.3969995 3.91879419 51.12977773 3.97147608 C45.16104415 3.99938567 39.19231069 4.02732014 33.2235775 4.05531311 C27.61028254 4.08163832 21.99698729 4.10789838 16.38369179 4.13410759 C14.31926589 4.14375831 12.2548401 4.15343321 10.19041443 4.16313362 C7.3801069 4.17633526 4.56979899 4.18945129 1.75949097 4.20254517 C0.52360435 4.20838159 0.52360435 4.20838159 -0.73724967 4.21433592 C-10.06956601 4.25759822 -10.06956601 4.25759822 -13.72554016 2.24050903 C-9.21141478 -0.0342007 -4.94108721 -0.03518549 0 0 Z " fill="#1CA7C2" transform="translate(223.7255401611328,265.7594909667969)"/>
<path d="M0 0 C-0.66 0 -1.32 0 -2 0 C-2 0.66 -2 1.32 -2 2 C-73.28 2 -144.56 2 -218 2 C-218 1.34 -218 0.68 -218 0 C-190.16697877 -0.15383774 -162.33393195 -0.3018728 -134.50084305 -0.4429636 C-121.57801962 -0.50860756 -108.65521142 -0.57616406 -95.73242188 -0.64819336 C-84.47143446 -0.71095526 -73.21043499 -0.77015891 -61.94940639 -0.82505554 C-55.98453549 -0.85425899 -50.0196861 -0.8852674 -44.05484772 -0.92053413 C-38.44402734 -0.95365161 -32.83320326 -0.98202225 -27.22233963 -1.00670624 C-25.15993706 -1.01662458 -23.09754209 -1.02829736 -21.03516006 -1.04183006 C-18.22520093 -1.06000913 -15.41528293 -1.07194771 -12.60528564 -1.08229065 C-11.78427408 -1.08909444 -10.96326251 -1.09589823 -10.1173718 -1.10290819 C-6.56803895 -1.10993867 -3.41443499 -0.95679049 0 0 Z " fill="#15A8B7" transform="translate(292,232)"/>
<path d="M0 0 C0.99 0.33 1.98 0.66 3 1 C3 1.66 3 2.32 3 3 C42.93 3.33 82.86 3.66 124 4 C123.34 4.33 122.68 4.66 122 5 C122 5.66 122 6.32 122 7 C107.10955576 7.09350894 92.2191343 7.16401128 77.32845879 7.20724869 C70.41418508 7.22785969 63.50009399 7.25595198 56.5859375 7.30175781 C49.91399752 7.34593785 43.24228649 7.36913472 36.57019424 7.37950897 C34.0240696 7.38690258 31.4779554 7.40134041 28.93191147 7.42292023 C25.36697661 7.45193564 21.80282682 7.45595661 18.23779297 7.45410156 C17.18402969 7.46848267 16.13026642 7.48286377 15.04457092 7.49768066 C9.08646171 7.46410918 5.47443309 7.09333361 1 3 C0.67 2.01 0.34 1.02 0 0 Z " fill="#18B3C8" transform="translate(324,227)"/>
<path d="M0 0 C0.95058792 -0.00281982 1.90117584 -0.00563965 2.88056946 -0.00854492 C4.44227119 -0.00550858 4.44227119 -0.00550858 6.03552246 -0.00241089 C7.13329514 -0.00416321 8.23106781 -0.00591553 9.36210632 -0.00772095 C13.00000579 -0.01213131 16.63785685 -0.00920431 20.27575684 -0.00582886 C22.79777028 -0.00650213 25.31978366 -0.00747235 27.84179688 -0.00872803 C33.13115109 -0.0102039 38.42048787 -0.00814903 43.70983887 -0.00338745 C49.82591003 0.00205476 55.94194785 0.00029195 62.05801821 -0.00521386 C67.9403896 -0.01029744 73.82275063 -0.00976088 79.7051239 -0.00683212 C82.20904037 -0.00616368 84.71295769 -0.0069884 87.21687317 -0.00931168 C90.71243565 -0.01184305 94.20793356 -0.00799067 97.70349121 -0.00241089 C98.7446257 -0.00443512 99.78576019 -0.00645935 100.85844421 -0.00854492 C102.2843261 -0.00431519 102.2843261 -0.00431519 103.73901367 0 C104.97897221 0.00056554 104.97897221 0.00056554 106.24398041 0.0011425 C108.36950684 0.12698364 108.36950684 0.12698364 111.36950684 1.12698364 C111.03950684 2.11698364 110.70950684 3.10698364 110.36950684 4.12698364 C69.70284017 4.12698364 29.0361735 4.12698364 -11.63049316 4.12698364 C-7.75261079 1.05142176 -4.93268115 0.00224977 0 0 Z " fill="#19ADB9" transform="translate(62.6304931640625,265.8730163574219)"/>
<path d="M0 0 C1.43850311 -0.00856522 1.43850311 -0.00856522 2.90606689 -0.01730347 C3.95655212 -0.01842133 5.00703735 -0.01953918 6.08935547 -0.02069092 C7.75064484 -0.02813828 7.75064484 -0.02813828 9.44549561 -0.03573608 C13.11585099 -0.05036369 16.7861632 -0.0571597 20.45654297 -0.06268311 C23.00097658 -0.06843277 25.54541017 -0.07419052 28.08984375 -0.07995605 C32.74396152 -0.08912296 37.39806627 -0.09542347 42.05219078 -0.09845281 C48.90517876 -0.10293795 55.75796771 -0.12050977 62.61089516 -0.1494534 C68.54558888 -0.17365021 74.48023283 -0.18139582 80.41497803 -0.18312836 C82.94123418 -0.18616311 85.46748934 -0.1942191 87.99371338 -0.20731354 C91.52054104 -0.22429382 95.04687897 -0.2225136 98.57373047 -0.21600342 C100.14945831 -0.22982559 100.14945831 -0.22982559 101.75701904 -0.243927 C103.19552216 -0.23557327 103.19552216 -0.23557327 104.66308594 -0.22705078 C105.4970993 -0.22851734 106.33111267 -0.2299839 107.19039917 -0.2314949 C109.79851785 0.22155982 110.68233625 1.12431261 112.33154297 3.14044189 C109.40197227 4.11696546 107.54038448 4.26393694 104.49104309 4.26069641 C103.49404892 4.26207108 102.49705475 4.26344574 101.46984863 4.26486206 C100.37724731 4.26126678 99.284646 4.25767151 98.15893555 4.25396729 C97.00757614 4.25411331 95.85621674 4.25425934 94.66996765 4.25440979 C90.8553175 4.2537118 87.04071587 4.24592468 83.22607422 4.23809814 C80.58477302 4.23623356 77.94347147 4.23480985 75.3021698 4.23381042 C69.05488468 4.23070137 62.80761705 4.22249371 56.56033963 4.21246094 C49.44795316 4.20128659 42.33556585 4.19578601 35.22317278 4.1907655 C20.59262049 4.18031076 5.96208197 4.16271954 -8.66845703 4.14044189 C-8.33845703 3.15044189 -8.00845703 2.16044189 -7.66845703 1.14044189 C-4.79428162 0.18238342 -2.98508323 0.01064685 0 0 Z " fill="#19AFB4" transform="translate(366.66845703125,101.85955810546875)"/>
<path d="M0 0 C0.89771567 -0.00170885 1.79543133 -0.0034177 2.7203505 -0.00517833 C5.73448509 -0.00847786 8.74839806 0.00253815 11.76251221 0.01345825 C13.92071019 0.01402227 16.07890856 0.013706 18.23710632 0.01257324 C24.10241836 0.01199834 29.96764894 0.02377486 35.83294201 0.03772116 C41.96019772 0.05020567 48.08745521 0.05139722 54.21472168 0.05377197 C65.820419 0.05999345 77.42607874 0.0764133 89.0317595 0.09647095 C102.24320389 0.11880919 115.45465005 0.12981816 128.66610861 0.13986182 C155.84572493 0.16077894 183.02530787 0.19596789 210.20489502 0.24050903 C210.20489502 0.57050903 210.20489502 0.90050903 210.20489502 1.24050903 C138.59489502 1.24050903 66.98489502 1.24050903 -6.79510498 1.24050903 C-6.79510498 1.90050903 -6.79510498 2.56050903 -6.79510498 3.24050903 C-8.43844002 4.27840485 -10.10754365 5.27618827 -11.79510498 6.24050903 C-14.31630667 8.76171072 -14.22767233 10.7207218 -14.54901123 14.17019653 C-15.03231484 18.23608407 -16.20289977 21.24349634 -18.23260498 24.80300903 C-18.66444092 25.5674231 -19.09627686 26.33183716 -19.54119873 27.11941528 C-20.57041315 28.86042285 -21.67323982 30.55771129 -22.79510498 32.24050903 C-22.12531638 26.72027332 -20.9453135 21.47729163 -19.48260498 16.11550903 C-19.18193115 14.93795044 -19.18193115 14.93795044 -18.87518311 13.73660278 C-17.4500616 8.50380368 -15.82995535 4.38038104 -11.21467209 1.12614632 C-7.53666413 -0.2201197 -3.86604433 -0.02679744 0 0 Z " fill="#00728A" transform="translate(138.79510498046875,2.759490966796875)"/>
<path d="M0 0 C0.66 0 1.32 0 2 0 C2.33 0.99 2.66 1.98 3 3 C3.66 2.01 4.32 1.02 5 0 C6.04449911 3.13349732 5.93423645 3.98968256 5 7 C0.44749493 8.14563413 -4.02580967 8.13693206 -8.68757629 8.12025452 C-9.99867946 8.12153615 -9.99867946 8.12153615 -11.33626956 8.12284368 C-14.26432101 8.12449045 -17.19231515 8.11899023 -20.12036133 8.11352539 C-22.21959431 8.11324332 -24.31882738 8.11340164 -26.4180603 8.1139679 C-32.11800429 8.11425509 -37.81792727 8.10837085 -43.51786637 8.10139394 C-49.47428675 8.09514753 -55.43070759 8.09455558 -61.38713074 8.09336853 C-72.66695446 8.09025902 -83.9467685 8.08205074 -95.22658795 8.07201904 C-108.06805442 8.06084612 -120.90952135 8.05534448 -133.75099146 8.05032361 C-160.16733301 8.03986783 -186.58366596 8.02227572 -213 8 C-213 7.67 -213 7.34 -213 7 C-199.34835309 6.24700496 -185.75395819 5.85700701 -172.08276367 5.88647461 C-170.19791668 5.88675775 -168.31306958 5.88659629 -166.42822266 5.8860321 C-161.3862286 5.88574906 -156.34425908 5.8915649 -151.30227065 5.89860606 C-146.00525145 5.90492281 -140.70823149 5.9054499 -135.41120911 5.90663147 C-125.41397557 5.90972053 -115.41675316 5.91790071 -105.41952449 5.92798096 C-94.02385075 5.93921807 -82.62817644 5.94467156 -71.23249853 5.94967639 C-47.82165955 5.96008577 -24.4108304 5.97763749 -1 6 C-0.67 4.02 -0.34 2.04 0 0 Z " fill="#19E5D3" transform="translate(288,224)"/>
<path d="M0 0 C2.73747605 8.21242815 -2.40720864 19.52632853 -4.6953125 27.54296875 C-5.22377274 29.41738396 -5.22377274 29.41738396 -5.76290894 31.32966614 C-6.68888924 34.61384278 -7.6209171 37.89627154 -8.55432129 41.17834473 C-9.51000648 44.54296989 -10.45981552 47.90925282 -11.41015625 51.27539062 C-13.26776878 57.851872 -15.13179106 64.42652117 -17 71 C-17.33 71 -17.66 71 -18 71 C-18.53792656 64.27591801 -16.94513462 58.85494679 -14.875 52.46484375 C-13.84457783 48.98015948 -13.84457783 48.98015948 -14 45.19140625 C-14 42 -14 42 -12 40 C-10.3065157 35.71648089 -9.54756465 31.56303876 -9 27 C-8.34 27 -7.68 27 -7 27 C-6.34 23.7 -5.68 20.4 -5 17 C-4.34 17 -3.68 17 -3 17 C-3.061875 15.865625 -3.12375 14.73125 -3.1875 13.5625 C-3.21380222 8.66152009 -1.76012394 4.526033 0 0 Z " fill="#20B0D6" transform="translate(430,305)"/>
<path d="M0 0 C1.22546732 3.52960943 0.76004454 5.76678755 -0.26342773 9.31933594 C-0.71400795 10.91053253 -0.71400795 10.91053253 -1.1736908 12.53387451 C-1.50695877 13.67253967 -1.84022675 14.81120483 -2.18359375 15.984375 C-2.51794937 17.15510559 -2.85230499 18.32583618 -3.1967926 19.53204346 C-4.26780331 23.27408207 -5.35246918 27.01200527 -6.4375 30.75 C-7.16561568 33.2848973 -7.89284046 35.82005067 -8.61914062 38.35546875 C-10.40242973 44.57332197 -12.19694867 50.78785048 -14 57 C-14.33 57 -14.66 57 -15 57 C-16.07421875 51.04296875 -16.07421875 51.04296875 -16 49 C-15.27296875 48.319375 -15.27296875 48.319375 -14.53125 47.625 C-12.7019745 46.01454637 -12.7019745 46.01454637 -12.70703125 43.08203125 C-12.74183594 42.00308594 -12.77664063 40.92414063 -12.8125 39.8125 C-12.85310547 38.18248047 -12.85310547 38.18248047 -12.89453125 36.51953125 C-12.94673828 35.27236328 -12.94673828 35.27236328 -13 34 C-12.01 34 -11.02 34 -10 34 C-9.9175 32.7625 -9.835 31.525 -9.75 30.25 C-9.20594479 25.16948444 -7.61181752 20.67951134 -5.92578125 15.87890625 C-3.80699097 9.40350996 -3.80699097 9.40350996 -5 3 C-3.68 3 -2.36 3 -1 3 C-0.67 2.01 -0.34 1.02 0 0 Z " fill="#18CCCA" transform="translate(321,141)"/>
<path d="M0 0 C0.66 0 1.32 0 2 0 C2 0.66 2 1.32 2 2 C1.34 2.66 0.68 3.32 0 4 C-0.79615283 6.08504595 -0.79615283 6.08504595 -1.4375 8.5 C-1.69015625 9.38429688 -1.9428125 10.26859375 -2.203125 11.1796875 C-2.46609375 12.11039062 -2.7290625 13.04109375 -3 14 C-3.55923423 15.87597663 -4.12157226 17.75103174 -4.6875 19.625 C-4.93886719 20.46289062 -5.19023437 21.30078125 -5.44921875 22.1640625 C-5.63097656 22.76992188 -5.81273437 23.37578125 -6 24 C-6.66 24 -7.32 24 -8 24 C-7.938125 24.99 -7.87625 25.98 -7.8125 27 C-7.80533152 30.59857463 -8.82426531 33.30478087 -10.2109375 36.62890625 C-11.19495899 39.58584211 -11.58276794 42.47568995 -12 45.5625 C-12.95598018 52.38867253 -14.48113033 57.62039325 -19 63 C-18.30352076 56.92948489 -16.82198262 51.2003694 -15.19921875 45.31640625 C-14.92157181 44.30207016 -14.64392487 43.28773407 -14.35786438 42.24266052 C-13.77087997 40.10475143 -13.18157477 37.96747834 -12.59008789 35.83081055 C-11.69208892 32.5791167 -10.807642 29.32393317 -9.92382812 26.06835938 C-9.34978512 23.98414711 -8.77494156 21.90015513 -8.19921875 19.81640625 C-7.80835335 18.36917931 -7.80835335 18.36917931 -7.40959167 16.89271545 C-3.72644574 3.72644574 -3.72644574 3.72644574 0 0 Z " fill="#138CAD" transform="translate(208,269)"/>
<path d="M0 0 C0.33 0 0.66 0 1 0 C1 3.96 1 7.92 1 12 C0.34 12 -0.32 12 -1 12 C-0.98839844 12.62648437 -0.97679688 13.25296875 -0.96484375 13.8984375 C-0.95582031 14.71570313 -0.94679688 15.53296875 -0.9375 16.375 C-0.92589844 17.18710938 -0.91429688 17.99921875 -0.90234375 18.8359375 C-1 21 -1 21 -2 23 C-2 24.32 -2 25.64 -2 27 C-1.360625 27.103125 -0.72125 27.20625 -0.0625 27.3125 C0.618125 27.539375 1.29875 27.76625 2 28 C2.33 28.99 2.66 29.98 3 31 C2.01 32.485 2.01 32.485 1 34 C2.32 34.66 3.64 35.32 5 36 C3.3125 36.75 3.3125 36.75 1 37 C-2.13865107 35.13175531 -3.70895418 33.56886229 -5.375 30.3125 C-6.77876404 22.87255056 -4.53272374 15.5683035 -2.4375 8.4375 C-2.20353516 7.61958984 -1.96957031 6.80167969 -1.72851562 5.95898438 C-1.15880046 3.97079473 -0.58033086 1.98511701 0 0 Z " fill="#0AEFC6" transform="translate(70,196)"/>
<path d="M0 0 C0.33 0 0.66 0 1 0 C1.56993514 8.26405949 -0.51394597 15.1977858 -3 23 C-3.66 23 -4.32 23 -5 23 C-5 29.27 -5 35.54 -5 42 C-6.98 42.495 -6.98 42.495 -9 43 C-9.33 43.99 -9.66 44.98 -10 46 C-10.99 46.495 -10.99 46.495 -12 47 C-11.3969591 40.99959305 -10.17397129 35.47249765 -8.49609375 29.6875 C-8.2533522 28.83317383 -8.01061066 27.97884766 -7.76051331 27.09863281 C-6.99167483 24.39748315 -6.21473272 21.69874482 -5.4375 19 C-4.91156993 17.157706 -4.386174 15.31525942 -3.86132812 13.47265625 C-2.58038693 8.97998341 -1.29217789 4.48945323 0 0 Z " fill="#0D9AA1" transform="translate(83,149)"/>
<path d="M0 0 C0.66 0.33 1.32 0.66 2 1 C1.60167969 1.7734375 1.20335937 2.546875 0.79296875 3.34375 C-0.83676294 6.54769941 -2.42931819 9.76671353 -4 13 C-4.35191406 13.72316406 -4.70382812 14.44632813 -5.06640625 15.19140625 C-7.17015432 20.05949961 -7.1690497 24.31549501 -6.8125 29.58203125 C-7.04282335 32.55224278 -7.79388797 33.11058045 -10 35 C-11.04622875 36.97620986 -12.05439935 38.9737129 -13 41 C-14.26950683 37.19147952 -13.34792914 34.64469762 -12.3046875 30.91796875 C-12.02070602 29.88027092 -12.02070602 29.88027092 -11.73098755 28.8216095 C-11.3267482 27.35696627 -10.91792409 25.89358188 -10.50488281 24.43139648 C-9.88149497 22.21063771 -9.28384542 19.98400924 -8.6875 17.75585938 C-8.29062466 16.33029334 -7.8922341 14.90514811 -7.4921875 13.48046875 C-7.31799286 12.82088669 -7.14379822 12.16130463 -6.96432495 11.48173523 C-5.53780993 6.56765586 -3.40708587 3.68066046 0 0 Z " fill="#0F9FA9" transform="translate(357,104)"/>
<path d="M0 0 C0.9075 0.103125 1.815 0.20625 2.75 0.3125 C1.96625 0.93125 1.1825 1.55 0.375 2.1875 C-3.66597212 5.28794403 -3.66597212 5.28794403 -4.8125 10.1875 C-4.90724609 11.20457031 -4.90724609 11.20457031 -5.00390625 12.2421875 C-5.48720986 16.30807504 -6.65779479 19.31548731 -8.6875 22.875 C-9.11933594 23.63941406 -9.55117187 24.40382813 -9.99609375 25.19140625 C-11.02530817 26.93241382 -12.12813484 28.62970226 -13.25 30.3125 C-12.5802114 24.79226429 -11.40020852 19.5492826 -9.9375 14.1875 C-9.63682617 13.00994141 -9.63682617 13.00994141 -9.33007812 11.80859375 C-6.27849272 0.60370122 -6.27849272 0.60370122 0 0 Z " fill="#0BAB9C" transform="translate(129.25,4.6875)"/>
<path d="M0 0 C2 2 2 2 2.25 4.75 C2 8 2 8 0.9375 11.0625 C-0.1039693 14.32577049 -0.09810349 15.79015904 1 19 C2.86843073 22.0574321 3.52837986 22.84279329 7 24 C7 24.66 7 25.32 7 26 C7.99 26.33 8.98 26.66 10 27 C7.3125 27.3125 7.3125 27.3125 4 27 C0.02207877 23.65492987 -2.83933474 20.79945091 -3.3125 15.5 C-3.20216706 10.12377665 -1.5760485 5.10339514 0 0 Z " fill="#17A3BE" transform="translate(21,370)"/>
<path d="M0 0 C1.46981515 3.88064511 0.49787367 6.62258142 -0.65234375 10.515625 C-1.01650391 11.76601563 -1.38066406 13.01640625 -1.75585938 14.3046875 C-2.14952524 15.61985585 -2.54340822 16.93495922 -2.9375 18.25 C-3.32838395 19.58046215 -3.71836832 20.91118895 -4.10742188 22.2421875 C-5.06278723 25.4975065 -6.02729115 28.74982934 -7 32 C-7.33 32 -7.66 32 -8 32 C-8.53792656 25.27591801 -6.94513462 19.85494679 -4.875 13.46484375 C-3.84441843 9.97952825 -3.84441843 9.97952825 -4 6.1875 C-4 5.135625 -4 4.08375 -4 3 C-2 1.0625 -2 1.0625 0 0 Z " fill="#179ACF" transform="translate(420,344)"/>
<path d="M0 0 C0.33 0 0.66 0 1 0 C1.31985731 6.71700347 0.4793824 11.75726932 -2 18 C-2.66 18 -3.32 18 -4 18 C-4.02578125 18.67804688 -4.0515625 19.35609375 -4.078125 20.0546875 C-4.50425683 27.04712346 -6.04377066 32.66129431 -9 39 C-10.36575504 34.60495235 -9.19779975 31.23725811 -7.91015625 26.953125 C-7.68678085 26.18192322 -7.46340546 25.41072144 -7.23326111 24.6161499 C-6.51894086 22.15795035 -5.79093355 19.70405011 -5.0625 17.25 C-4.57526383 15.58229627 -4.08892493 13.91433012 -3.60351562 12.24609375 C-2.41272707 8.16094647 -1.20964896 4.07960041 0 0 Z " fill="#1488CA" transform="translate(162,425)"/>
<path d="M0 0 C0.99 0 1.98 0 3 0 C2.29304559 6.8604449 0.33617314 13.32410188 -1.5625 19.9375 C-2.0565332 21.67870117 -2.0565332 21.67870117 -2.56054688 23.45507812 C-3.3696596 26.30456206 -4.18291987 29.15279247 -5 32 C-7.25608695 24.07545462 -4.13637966 14.78252591 -2 7 C-1.34 7 -0.68 7 0 7 C0 4.69 0 2.38 0 0 Z " fill="#15A9C0" transform="translate(167,320)"/>
<path d="M0 0 C1.04590805 0.0199855 2.0918161 0.03997101 3.16941833 0.06056213 C4.35056717 0.08065842 5.531716 0.1007547 6.74865723 0.12145996 C8.03404892 0.14849503 9.31944061 0.17553009 10.64378357 0.2033844 C11.95193527 0.22699539 13.26008698 0.25060638 14.60787964 0.27493286 C18.09158255 0.33786801 21.57513913 0.40690765 25.05870056 0.47718811 C28.61108212 0.54778666 32.16356771 0.61265428 35.71604919 0.67799377 C42.69077167 0.80712753 49.66535639 0.94270587 56.63987732 1.08229065 C56.63987732 1.41229065 56.63987732 1.74229065 56.63987732 2.08229065 C49.14680214 2.22510226 41.65371869 2.36747391 34.16062927 2.50953674 C31.61049713 2.55793744 29.06036691 2.60643962 26.51023865 2.65504456 C22.84902945 2.72480899 19.18781353 2.79421091 15.52659607 2.86354065 C14.38276962 2.88541443 13.23894318 2.90728821 12.06045532 2.92982483 C10.46914543 2.95985596 10.46914543 2.95985596 8.84568787 2.99049377 C7.44337166 3.01714111 7.44337166 3.01714111 6.01272583 3.04432678 C2.18899242 3.10550376 -0.00144681 2.9353532 -3.36012268 1.08229065 C-2.36012268 0.08229065 -2.36012268 0.08229065 0 0 Z " fill="#1EE2E4" transform="translate(213.36012268066406,266.91770935058594)"/>
<path d="M0 0 C1.46981515 3.88064511 0.49787367 6.62258142 -0.65234375 10.515625 C-1.01650391 11.76601562 -1.38066406 13.01640625 -1.75585938 14.3046875 C-2.14952524 15.61985585 -2.54340822 16.93495922 -2.9375 18.25 C-3.32838395 19.58046215 -3.71836832 20.91118895 -4.10742188 22.2421875 C-5.06278723 25.4975065 -6.02729115 28.74982934 -7 32 C-7.33 32 -7.66 32 -8 32 C-7.67 26.72 -7.34 21.44 -7 16 C-6.34 16 -5.68 16 -5 16 C-4.87882812 15.14535156 -4.75765625 14.29070312 -4.6328125 13.41015625 C-4.46523438 12.30542969 -4.29765625 11.20070312 -4.125 10.0625 C-3.96257812 8.96035156 -3.80015625 7.85820312 -3.6328125 6.72265625 C-3.42398437 5.82417969 -3.21515625 4.92570313 -3 4 C-2.34 3.67 -1.68 3.34 -1 3 C-0.67 2.01 -0.34 1.02 0 0 Z " fill="#15A8BD" transform="translate(474,152)"/>
<path d="M0 0 C0.99 0 1.98 0 3 0 C2.29304559 6.8604449 0.33617314 13.32410188 -1.5625 19.9375 C-2.0565332 21.67870117 -2.0565332 21.67870117 -2.56054688 23.45507812 C-3.3696596 26.30456206 -4.18291987 29.15279247 -5 32 C-5.33 32 -5.66 32 -6 32 C-6.24256893 25.57192332 -5.87093255 19.1930869 -4 13 C-3.4946875 12.505 -2.989375 12.01 -2.46875 11.5 C-0.40266462 9.38995536 -0.50079245 7.7122038 -0.3125 4.8125 C-0.24675781 3.91144531 -0.18101562 3.01039062 -0.11328125 2.08203125 C-0.07589844 1.39496094 -0.03851563 0.70789063 0 0 Z " fill="#10A8AA" transform="translate(335,84)"/>
<path d="M0 0 C1.46981515 3.88064511 0.49787367 6.62258142 -0.65234375 10.515625 C-1.01650391 11.76601563 -1.38066406 13.01640625 -1.75585938 14.3046875 C-2.14952524 15.61985585 -2.54340822 16.93495922 -2.9375 18.25 C-3.32838395 19.58046215 -3.71836832 20.91118895 -4.10742188 22.2421875 C-5.06278723 25.4975065 -6.02729115 28.74982934 -7 32 C-7.33 32 -7.66 32 -8 32 C-8.52752595 23.03205885 -6.51861069 14.24578766 -3 6 C-2.34 6 -1.68 6 -1 6 C-0.67 4.02 -0.34 2.04 0 0 Z " fill="#1899D4" transform="translate(406,394)"/>
<path d="M0 0 C1.30477141 3.64579605 0.67424442 5.98670262 -0.43359375 9.640625 C-0.75263672 10.71054687 -1.07167969 11.78046875 -1.40039062 12.8828125 C-1.74263672 13.99398438 -2.08488281 15.10515625 -2.4375 16.25 C-2.77587891 17.37664062 -3.11425781 18.50328125 -3.46289062 19.6640625 C-4.29968989 22.4455361 -5.14568326 25.22386656 -6 28 C-7.1604984 24.5185048 -6.78733579 22.82479864 -6.125 19.25 C-5.50641862 15.83543076 -4.90458159 12.44643575 -4.5 9 C-3.83585297 5.01511781 -2.84139776 2.84139776 0 0 Z " fill="#1796D1" transform="translate(391,447)"/>
<path d="M0 0 C0.33 0 0.66 0 1 0 C1.98248524 4.0527516 2.08159574 7.83861737 2 12 C1.360625 12.103125 0.72125 12.20625 0.0625 12.3125 C-0.9584375 12.6528125 -0.9584375 12.6528125 -2 13 C-2.33 13.99 -2.66 14.98 -3 16 C-3.66 16.33 -4.32 16.66 -5 17 C-4.44854729 11.76119922 -3.57077907 7.02649303 -2 2 C-1.34 2 -0.68 2 0 2 C0 1.34 0 0.68 0 0 Z " fill="#13D7BD" transform="translate(76,179)"/>
<path d="M0 0 C0.33 0 0.66 0 1 0 C1.19480608 5.55197342 0.62683465 9.62859155 -1 15 C-1.31839844 16.20140625 -1.63679688 17.4028125 -1.96484375 18.640625 C-2.28582031 19.83171875 -2.60679688 21.0228125 -2.9375 22.25 C-3.25589844 23.45140625 -3.57429688 24.6528125 -3.90234375 25.890625 C-4.97114351 28.91825705 -5.71803444 29.91847999 -8 32 C-6.65179804 24.68032826 -4.87481086 17.54178629 -2.875 10.375 C-2.59785156 9.37082031 -2.32070312 8.36664063 -2.03515625 7.33203125 C-1.35989931 4.88713545 -0.68147179 2.44316934 0 0 Z " fill="#0FA3A5" transform="translate(99,92)"/>
<path d="M0 0 C3.35491822 5.76179523 1.42909032 11.66102198 -0.19140625 17.81640625 C-0.64121259 19.40050684 -1.09827232 20.98256547 -1.5625 22.5625 C-1.79646484 23.38041016 -2.03042969 24.19832031 -2.27148438 25.04101562 C-2.84119954 27.02920527 -3.41966914 29.01488299 -4 31 C-5.87724397 24.0435852 -4.43643289 17.5566009 -1.69921875 11.02734375 C-0.46746272 7.45593939 -0.25174783 3.75017464 0 0 Z " fill="#0E9E9D" transform="translate(355,10)"/>
<path d="M0 0 C0.33 0 0.66 0 1 0 C1.4831516 6.28097076 0.20572951 10.90910344 -1.91015625 16.8125 C-3.61196356 21.78982892 -4.80215651 26.88194145 -6 32 C-6.66 32 -7.32 32 -8 32 C-7.29304559 25.1395551 -5.33617314 18.67589812 -3.4375 12.0625 C-2.9434668 10.32129883 -2.9434668 10.32129883 -2.43945312 8.54492188 C-1.6303404 5.69543794 -0.81708013 2.84720753 0 0 Z " fill="#1392BC" transform="translate(188,332)"/>
<path d="M0 0 C1.3609623 2.7219246 0.70366248 4.1831957 0.0625 7.125 C-0.13214844 8.03507812 -0.32679687 8.94515625 -0.52734375 9.8828125 C-0.68332031 10.58148438 -0.83929688 11.28015625 -1 12 C-1.33 12 -1.66 12 -2 12 C-2.66 15.3 -3.32 18.6 -4 22 C-4.66 22 -5.32 22 -6 22 C-5.938125 22.928125 -5.87625 23.85625 -5.8125 24.8125 C-6 28 -6 28 -7.51171875 29.69921875 C-8.00285156 30.12847656 -8.49398437 30.55773437 -9 31 C-7.83255783 24.41987143 -6.2632563 18.00395401 -4.5 11.5625 C-4.17962769 10.37261475 -4.17962769 10.37261475 -3.8527832 9.15869141 C-3.64355225 8.4063623 -3.43432129 7.6540332 -3.21875 6.87890625 C-3.03248047 6.2041626 -2.84621094 5.52941895 -2.65429688 4.83422852 C-2 3 -2 3 0 0 Z " fill="#0F93AB" transform="translate(50,271)"/>
<path d="M0 0 C1.73184073 4.11840173 0.13100794 7.64220362 -1.25 11.625 C-1.46785156 12.305625 -1.68570312 12.98625 -1.91015625 13.6875 C-3.1502094 17.35689704 -3.6887669 18.79251127 -7 21 C-7.99 21 -8.98 21 -10 21 C-9.65930765 17.84859577 -9.41923159 16.39218439 -7.0625 14.1875 C-5 13 -5 13 -3 13 C-3.0928125 11.453125 -3.0928125 11.453125 -3.1875 9.875 C-2.98864405 5.76531027 -2.05532197 3.51117504 0 0 Z " fill="#19D6E0" transform="translate(458,209)"/>
<path d="M0 0 C0.66 0 1.32 0 2 0 C2 0.66 2 1.32 2 2 C1.34 2.66 0.68 3.32 0 4 C-0.79615283 6.08504595 -0.79615283 6.08504595 -1.4375 8.5 C-1.69015625 9.38429688 -1.9428125 10.26859375 -2.203125 11.1796875 C-2.46609375 12.11039062 -2.7290625 13.04109375 -3 14 C-3.55923423 15.87597663 -4.12157226 17.75103174 -4.6875 19.625 C-4.93886719 20.46289062 -5.19023437 21.30078125 -5.44921875 22.1640625 C-5.63097656 22.76992188 -5.81273437 23.37578125 -6 24 C-6.66 24 -7.32 24 -8 24 C-7.37257821 15.8435167 -5.66214921 6.22539966 0 0 Z " fill="#16A6BD" transform="translate(208,269)"/>
<path d="M0 0 C0.99 0.33 1.98 0.66 3 1 C3 1.66 3 2.32 3 3 C23.295 3.495 23.295 3.495 44 4 C44 4.33 44 4.66 44 5 C38.53809265 5.24226048 33.07604206 5.45714736 27.61206055 5.64697266 C25.75434831 5.7153388 23.89689317 5.79111645 22.03979492 5.87451172 C19.36670826 5.99325199 16.69382346 6.08510915 14.01953125 6.171875 C13.19226028 6.21439392 12.36498932 6.25691284 11.51264954 6.30072021 C7.42984455 6.40703873 5.50504373 6.31085806 1.9362793 4.11425781 C0 2 0 2 0 0 Z " fill="#1DE1DD" transform="translate(324,227)"/>
<path d="M0 0 C0.33 0 0.66 0 1 0 C1.38307318 6.76762616 0.17688744 12.58212978 -2 19 C-2.33 19.33 -2.66 19.66 -3 20 C-3.36760731 22.32817964 -3.70241581 24.6618385 -4 27 C-4.66 27 -5.32 27 -6 27 C-6.33 27.66 -6.66 28.32 -7 29 C-6.29791463 22.66345734 -4.65627796 16.69187754 -2.9375 10.5625 C-2.65583984 9.54478516 -2.37417969 8.52707031 -2.08398438 7.47851562 C-1.39317556 4.98457872 -0.69842182 2.49181351 0 0 Z " fill="#119BAE" transform="translate(342,145)"/>
<path d="M0 0 C1.67411333 4.62011797 -0.05744858 7.96344284 -1.75 12.359375 C-3.38901543 15.82179509 -4.96843527 17.68643744 -8 20 C-8.66 20 -9.32 20 -10 20 C-10 18.68 -10 17.36 -10 16 C-8.68 16 -7.36 16 -6 16 C-5.86722656 15.44828125 -5.73445313 14.8965625 -5.59765625 14.328125 C-4.94339359 11.77949398 -4.19964936 9.26840657 -3.4375 6.75 C-3.16808594 5.85796875 -2.89867187 4.9659375 -2.62109375 4.046875 C-2.41613281 3.37140625 -2.21117187 2.6959375 -2 2 C-1.34 2 -0.68 2 0 2 C0 1.34 0 0.68 0 0 Z " fill="#1DA2DD" transform="translate(383,476)"/>
<path d="M0 0 C2.1240673 3.62938674 1.94272146 5.64651747 0.90039062 9.74609375 C0.70638672 10.44863281 0.51238281 11.15117187 0.3125 11.875 C0.13783203 12.56980469 -0.03683594 13.26460938 -0.21679688 13.98046875 C-1.34792408 18.28604973 -2.86132188 22.06779066 -5 26 C-6.19784792 22.51664404 -5.78454679 20.30493975 -4.78515625 16.796875 C-4.51123047 15.8171875 -4.23730469 14.8375 -3.95507812 13.828125 C-3.66052734 12.81234375 -3.36597656 11.7965625 -3.0625 10.75 C-2.77181641 9.71875 -2.48113281 8.6875 -2.18164062 7.625 C-1.46311846 5.0807248 -0.73563156 2.53937099 0 0 Z " fill="#189ECA" transform="translate(172,388)"/>
<path d="M0 0 C0.33 0 0.66 0 1 0 C1.76931472 9.69336545 -1.04196755 17.89348582 -4 27 C-4.33 27 -4.66 27 -5 27 C-5.33693273 20.03672362 -4.3030887 14.56654456 -2 8 C-1.34 8 -0.68 8 0 8 C0 5.36 0 2.72 0 0 Z " fill="#1096B0" transform="translate(180,275)"/>
<path d="M0 0 C1.16983989 3.42967895 0.81325413 5.54339435 -0.21484375 8.984375 C-0.48876953 9.91894531 -0.76269531 10.85351562 -1.04492188 11.81640625 C-1.33947266 12.78449219 -1.63402344 13.75257813 -1.9375 14.75 C-2.22818359 15.73355469 -2.51886719 16.71710938 -2.81835938 17.73046875 C-3.53672769 20.15643388 -4.26420822 22.57927358 -5 25 C-5.33 25 -5.66 25 -6 25 C-6.28582933 16.99677873 -4.63731811 10.53519459 -2 3 C-1.34 3 -0.68 3 0 3 C0 2.01 0 1.02 0 0 Z " fill="#119CB1" transform="translate(481,127)"/>
<path d="M0 0 C1.16983989 3.42967895 0.81325413 5.54339435 -0.21484375 8.984375 C-0.48876953 9.91894531 -0.76269531 10.85351562 -1.04492188 11.81640625 C-1.33947266 12.78449219 -1.63402344 13.75257813 -1.9375 14.75 C-2.22818359 15.73355469 -2.51886719 16.71710938 -2.81835938 17.73046875 C-3.53672769 20.15643388 -4.26420822 22.57927358 -5 25 C-5.33 25 -5.66 25 -6 25 C-7.07421875 19.04296875 -7.07421875 19.04296875 -7 17 C-6.525625 16.5359375 -6.05125 16.071875 -5.5625 15.59375 C-3.32787681 13.31443434 -3.49676609 11.44502345 -3.3125 8.3125 C-3.24675781 7.31863281 -3.18101562 6.32476562 -3.11328125 5.30078125 C-3.07589844 4.54152344 -3.03851563 3.78226563 -3 3 C-2.01 3 -1.02 3 0 3 C0 2.01 0 1.02 0 0 Z " fill="#0D92A7" transform="translate(312,173)"/>
<path d="M0 0 C0.66 0 1.32 0 2 0 C1.33854315 5.66419943 0.01244028 10.96270761 -1.5625 16.4375 C-1.79646484 17.26443359 -2.03042969 18.09136719 -2.27148438 18.94335938 C-2.84363015 20.96338426 -3.42125204 22.98185676 -4 25 C-5.126037 21.11609533 -4.74250661 18.25003886 -4.0625 14.25 C-3.86785156 13.07953125 -3.67320312 11.9090625 -3.47265625 10.703125 C-3.31667969 9.81109375 -3.16070312 8.9190625 -3 8 C-2.34 8 -1.68 8 -1 8 C-1.020625 7.05125 -1.04125 6.1025 -1.0625 5.125 C-1 2 -1 2 0 0 Z " fill="#1298B7" transform="translate(464,184)"/>
<path d="M0 0 C0.33 0 0.66 0 1 0 C1.39855867 6.90835034 0.48566516 13.507591 -2 20 C-4.109375 22.359375 -4.109375 22.359375 -6 24 C-4.56933303 15.8301386 -2.35862583 7.94605012 0 0 Z " fill="#179CC6" transform="translate(179,364)"/>
<path d="M0 0 C1.16983989 3.42967895 0.81325413 5.54339435 -0.21484375 8.984375 C-0.48876953 9.91894531 -0.76269531 10.85351562 -1.04492188 11.81640625 C-1.33947266 12.78449219 -1.63402344 13.75257813 -1.9375 14.75 C-2.22818359 15.73355469 -2.51886719 16.71710938 -2.81835938 17.73046875 C-3.53672769 20.15643388 -4.26420822 22.57927358 -5 25 C-5.95111406 21.62053805 -5.88095874 19.55931706 -5.0625 16.125 C-3.48979623 9.4616895 -3.48979623 9.4616895 -5 3 C-3.68 3 -2.36 3 -1 3 C-0.67 2.01 -0.34 1.02 0 0 Z " fill="#0A92A3" transform="translate(321,141)"/>
<path d="M0 0 C1.54415517 4.38340822 0.09478078 6.84548978 -1.80859375 10.87109375 C-3.20256076 13.36195284 -4.79558341 15.18922923 -7 17 C-7.99 16.67 -8.98 16.34 -10 16 C-9.34 15.67 -8.68 15.34 -8 15 C-7.731875 14.29875 -7.46375 13.5975 -7.1875 12.875 C-5.88270489 9.71602237 -4.18156095 7.35089003 -2.12109375 4.6484375 C-0.80867708 2.87939685 -0.80867708 2.87939685 0 0 Z " fill="#11ADB9" transform="translate(300,216)"/>
<path d="M0 0 C0.33 0 0.66 0 1 0 C1 3.96 1 7.92 1 12 C0.01 12 -0.98 12 -2 12 C-1.938125 12.825 -1.87625 13.65 -1.8125 14.5 C-2.04724662 18.88193696 -3.32618654 21.95495082 -5 26 C-5.33 26 -5.66 26 -6 26 C-5.39502042 19.93629658 -4.1366972 14.34485758 -2.4375 8.5 C-2.20353516 7.67757812 -1.96957031 6.85515625 -1.72851562 6.0078125 C-1.15757928 4.00370942 -0.57953295 2.00163409 0 0 Z " fill="#0D8CA1" transform="translate(70,196)"/>
<path d="M0 0 C0.33 0 0.66 0 1 0 C1.55353075 12.66970387 1.55353075 12.66970387 -2 18 C-2.66 18 -3.32 18 -4 18 C-3.31195504 11.80759538 -1.71951285 5.98044406 0 0 Z " fill="#11A0B7" transform="translate(40,302)"/>
<path d="M0 0 C2 3 2 3 1.75 6.625 C1.5025 7.73875 1.255 8.8525 1 10 C0.01 10.495 0.01 10.495 -1 11 C-2.04808041 12.97522846 -3.0520411 14.97481509 -4 17 C-5.27424413 13.17726761 -4.44830198 11.69293974 -3.125 7.9375 C-2.75632812 6.87402344 -2.38765625 5.81054688 -2.0078125 4.71484375 C-1 2 -1 2 0 0 Z " fill="#11BABA" transform="translate(348,128)"/>
<path d="M0 0 C1.63129887 4.06285757 0.29968777 7.20102184 -0.9375 11.25 C-1.31777344 12.51328125 -1.69804687 13.7765625 -2.08984375 15.078125 C-2.39019531 16.04234375 -2.69054687 17.0065625 -3 18 C-3.33 18 -3.66 18 -4 18 C-4 12.72 -4 7.44 -4 2 C-2.68 2.33 -1.36 2.66 0 3 C0 2.01 0 1.02 0 0 Z " fill="#0D9FA6" transform="translate(342,66)"/>
<path d="M0 0 C0.33 0 0.66 0 1 0 C1.21192221 5.19209404 0.5912689 9.126739 -1 14 C-1.66 14 -2.32 14 -3 14 C-3.33 14.99 -3.66 15.98 -4 17 C-4.27036084 11.72796354 -3.26305335 7.07476794 -2 2 C-1.34 2 -0.68 2 0 2 C0 1.34 0 0.68 0 0 Z " fill="#1DB2D8" transform="translate(423,330)"/>
<path d="M0 0 C0.66 0.33 1.32 0.66 2 1 C2.33 1.99 2.66 2.98 3 4 C4.62935241 5.37868281 6.29749607 6.71274093 8 8 C8.66 8.66 9.32 9.32 10 10 C8.3125 10.75 8.3125 10.75 6 11 C2.5386399 8.9396666 1.2049319 7.50745042 -0.3125 3.75 C-0.539375 2.8425 -0.76625 1.935 -1 1 C-0.67 0.67 -0.34 0.34 0 0 Z " fill="#14B8B7" transform="translate(65,222)"/>
<path d="M0 0 C0.33 0 0.66 0 1 0 C1.05441656 1.89551022 1.09298035 3.7914792 1.125 5.6875 C1.14820312 6.74324219 1.17140625 7.79898438 1.1953125 8.88671875 C0.99535169 12.07409401 0.52343305 14.20031343 -1 17 C-1.99 17.33 -2.98 17.66 -4 18 C-3.31195504 11.80759538 -1.71951285 5.98044406 0 0 Z " fill="#0CA19E" transform="translate(88,131)"/>
<path d="M0 0 C1.00693162 3.12179408 0.97289724 4.98969669 0.00390625 8.109375 C-0.22490234 8.86347656 -0.45371094 9.61757813 -0.68945312 10.39453125 C-0.93630859 11.17183594 -1.18316406 11.94914062 -1.4375 12.75 C-1.68048828 13.54277344 -1.92347656 14.33554687 -2.17382812 15.15234375 C-2.77354195 17.10435346 -3.38558121 19.05256883 -4 21 C-4.33 21 -4.66 21 -5 21 C-5.125 13.375 -5.125 13.375 -4 10 C-3.34 10 -2.68 10 -2 10 C-2.061875 8.081875 -2.061875 8.081875 -2.125 6.125 C-2.1953125 3.9453125 -2.1953125 3.9453125 -2 2 C-1.34 1.34 -0.68 0.68 0 0 Z " fill="#158CC7" transform="translate(397,426)"/>
<path d="M0 0 C0.33 0 0.66 0 1 0 C1.31985731 6.71700347 0.4793824 11.75726932 -2 18 C-2.66 18 -3.32 18 -4 18 C-3.41632611 11.69632197 -1.95928381 6.01339937 0 0 Z " fill="#19A2CB" transform="translate(162,425)"/>
<path d="M0 0 C0.33 0 0.66 0 1 0 C1.65273326 3.02454618 2.1493847 5.90026751 2 9 C-0.4375 11.5625 -0.4375 11.5625 -3 13 C-3.14285714 5.57142857 -3.14285714 5.57142857 -2 2 C-1.34 2 -0.68 2 0 2 C0 1.34 0 0.68 0 0 Z " fill="#12C7B3" transform="translate(92,122)"/>
<path d="M0 0 C0.66 0 1.32 0 2 0 C1.41632611 6.30367803 -0.04071619 11.98660063 -2 18 C-2.33 18 -2.66 18 -3 18 C-3.36517527 11.42684522 -2.13619737 6.20514474 0 0 Z " fill="#0D9AA4" transform="translate(348,41)"/>
<path d="M0 0 C0.96049582 3.8419833 1.08807605 4.61887712 0.00390625 8.109375 C-0.22490234 8.86347656 -0.45371094 9.61757813 -0.68945312 10.39453125 C-0.93630859 11.17183594 -1.18316406 11.94914062 -1.4375 12.75 C-1.68048828 13.54277344 -1.92347656 14.33554687 -2.17382812 15.15234375 C-2.77354195 17.10435346 -3.38558121 19.05256883 -4 21 C-4.33 21 -4.66 21 -5 21 C-5 17.7 -5 14.4 -5 11 C-4.01 10.67 -3.02 10.34 -2 10 C-1.34 6.7 -0.68 3.4 0 0 Z " fill="#0D89AE" transform="translate(156,366)"/>
<path d="M0 0 C0.33 0 0.66 0 1 0 C1.48889219 6.68152662 -0.72256799 11.90781903 -5 17 C-4.35812082 11.86496656 -3.31727753 7.0056546 -2 2 C-1.34 2 -0.68 2 0 2 C0 1.34 0 0.68 0 0 Z " fill="#16AAC3" transform="translate(194,315)"/>
<path d="M0 0 C1.63129887 4.06285757 0.29968777 7.20102184 -0.9375 11.25 C-1.31777344 12.51328125 -1.69804687 13.7765625 -2.08984375 15.078125 C-2.39019531 16.04234375 -2.69054687 17.0065625 -3 18 C-4.30079252 14.26368105 -3.78881096 11.17559848 -3.1875 7.3125 C-3.01605469 6.15363281 -2.84460938 4.99476563 -2.66796875 3.80078125 C-2.44753906 2.87652344 -2.22710937 1.95226562 -2 1 C-1.34 0.67 -0.68 0.34 0 0 Z " fill="#1096B4" transform="translate(165,334)"/>
<path d="M0 0 C1.63129887 4.06285757 0.29968777 7.20102184 -0.9375 11.25 C-1.31777344 12.51328125 -1.69804687 13.7765625 -2.08984375 15.078125 C-2.39019531 16.04234375 -2.69054687 17.0065625 -3 18 C-4.03526844 14.68243521 -4.03187431 11.89046026 -3.75 8.4375 C-3.68296875 7.48746094 -3.6159375 6.53742188 -3.546875 5.55859375 C-2.94350087 2.7356648 -2.22096604 1.77319063 0 0 Z " fill="#1094BC" transform="translate(436,287)"/>
<path d="M0 0 C0.8723412 2.99480917 1.10829766 5.63575911 1.0625 8.75 C1.05347656 9.54921875 1.04445312 10.3484375 1.03515625 11.171875 C1.01775391 12.07679688 1.01775391 12.07679688 1 13 C0.360625 13.268125 -0.27875 13.53625 -0.9375 13.8125 C-3.33131686 14.88667752 -3.33131686 14.88667752 -4 18 C-3.31195504 11.80759538 -1.71951285 5.98044406 0 0 Z " fill="#159CC7" transform="translate(151,464)"/>
<path d="M0 0 C1.63129887 4.06285757 0.29968777 7.20102184 -0.9375 11.25 C-1.31777344 12.51328125 -1.69804687 13.7765625 -2.08984375 15.078125 C-2.39019531 16.04234375 -2.69054687 17.0065625 -3 18 C-3.33 18 -3.66 18 -4 18 C-4.08252495 13.21355271 -4.14242743 8.68395246 -3 4 C-2.34 3.67 -1.68 3.34 -1 3 C-0.67 2.01 -0.34 1.02 0 0 Z " fill="#1197B1" transform="translate(474,152)"/>
<path d="M0 0 C0.66 0 1.32 0 2 0 C2.33 0.99 2.66 1.98 3 3 C3.66 2.01 4.32 1.02 5 0 C6.04449911 3.13349732 5.93423645 3.98968256 5 7 C3.02 7 1.04 7 -1 7 C-0.67 4.69 -0.34 2.38 0 0 Z " fill="#0EE8D6" transform="translate(288,224)"/>
<path d="M0 0 C0.33 0 0.66 0 1 0 C1 3.96 1 7.92 1 12 C-0.98 12.99 -0.98 12.99 -3 14 C-2.69024532 12.22868439 -2.37709575 10.45796222 -2.0625 8.6875 C-1.88847656 7.70136719 -1.71445312 6.71523437 -1.53515625 5.69921875 C-1 3 -1 3 0 0 Z " fill="#0F9CA7" transform="translate(332,181)"/>
<path d="M0 0 C-0.639375 0.226875 -1.27875 0.45375 -1.9375 0.6875 C-4.27193661 1.85250896 -4.27193661 1.85250896 -4.75 4.625 C-4.8325 5.40875 -4.915 6.1925 -5 7 C-5.99 7.33 -6.98 7.66 -8 8 C-8.66 7.67 -9.32 7.34 -10 7 C-7.6551217 1.76911763 -5.98347266 -0.48514643 0 0 Z " fill="#0AF0C7" transform="translate(365,105)"/>
<path d="M0 0 C1.63129887 4.06285757 0.29968777 7.20102184 -0.9375 11.25 C-1.31777344 12.51328125 -1.69804687 13.7765625 -2.08984375 15.078125 C-2.39019531 16.04234375 -2.69054687 17.0065625 -3 18 C-4.20220203 14.46905698 -3.79532349 11.87101018 -3.0625 8.25 C-2.86785156 7.26515625 -2.67320312 6.2803125 -2.47265625 5.265625 C-2.31667969 4.51796875 -2.16070312 3.7703125 -2 3 C-1.34 3 -0.68 3 0 3 C0 2.01 0 1.02 0 0 Z " fill="#0C87A9" transform="translate(174,302)"/>
<path d="M0 0 C1.56393356 3.97376829 0.36145292 6.81377903 -0.9375 10.75 C-1.31777344 11.92046875 -1.69804687 13.0909375 -2.08984375 14.296875 C-2.39019531 15.18890625 -2.69054687 16.0809375 -3 17 C-3.66 15.68 -4.32 14.36 -5 13 C-4.34 13 -3.68 13 -3 13 C-3.061875 11.96875 -3.12375 10.9375 -3.1875 9.875 C-2.98864405 5.76531027 -2.05532197 3.51117504 0 0 Z " fill="#1188B2" transform="translate(458,209)"/>
<path d="M0 0 C0.33 0 0.66 0 1 0 C1.33249053 6.20648988 0.54922986 10.31325646 -2 16 C-2.66 16.66 -3.32 17.32 -4 18 C-2.9611908 11.8887076 -1.84269722 5.92295536 0 0 Z " fill="#0B9099" transform="translate(99,92)"/>
<path d="M0 0 C3 1 3 1 4.171875 2.77734375 C5.07059576 5.18947635 5.26737066 6.99598486 5.25 9.5625 C5.25515625 10.32691406 5.2603125 11.09132813 5.265625 11.87890625 C5 14 5 14 3 17 C3 12.71 3 8.42 3 4 C2.01 4 1.02 4 0 4 C0 2.68 0 1.36 0 0 Z " fill="#0D7DB2" transform="translate(434,270)"/>
<path d="M0 0 C2.53541298 0.09086451 5.03554784 0.2370945 7.5625 0.4375 C8.62887695 0.51581055 8.62887695 0.51581055 9.71679688 0.59570312 C11.47821999 0.72574107 13.23916173 0.86226897 15 1 C11.75370888 2.75065381 9.70448875 3.18997378 6 3 C5.01 3 4.02 3 3 3 C0.8125 2 0.8125 2 -1 1 C-0.67 0.67 -0.34 0.34 0 0 Z " fill="#17CCD2" transform="translate(211,267)"/>
<path d="M0 0 C0.598125 0.639375 1.19625 1.27875 1.8125 1.9375 C3.90810337 4.20310389 3.90810337 4.20310389 7 5 C7 5.66 7 6.32 7 7 C7.99 7.33 8.98 7.66 10 8 C6.74704886 8.22179212 4.57202207 8.28601103 1.625 6.8125 C0 5 0 5 -0.25 2.3125 C-0.1675 1.549375 -0.085 0.78625 0 0 Z " fill="#1CB6CB" transform="translate(21,389)"/>
<path d="M0 0 C0.33 0 0.66 0 1 0 C0.85892253 1.45880109 0.71197585 2.91703551 0.5625 4.375 C0.48128906 5.18710937 0.40007812 5.99921875 0.31640625 6.8359375 C0 9 0 9 -1 11 C-1.66 11 -2.32 11 -3 11 C-3.33 11.66 -3.66 12.32 -4 13 C-3.40895235 8.15340923 -2.02055843 4.39251833 0 0 Z " fill="#29D1FC" transform="translate(384,467)"/>
<path d="M0 0 C0.99 0 1.98 0 3 0 C2.40380045 4.86896303 1.43023178 9.32790951 0 14 C-1.03115279 10.73086376 -0.9638984 8.13958652 -0.5625 4.75 C-0.46066406 3.85796875 -0.35882813 2.9659375 -0.25390625 2.046875 C-0.17011719 1.37140625 -0.08632813 0.6959375 0 0 Z " fill="#0A989E" transform="translate(335,84)"/>
<path d="M0 0 C1.5 1.375 1.5 1.375 3 3 C3 3.66 3 4.32 3 5 C2.01 5.495 2.01 5.495 1 6 C0.34227572 9.02934491 0.34227572 9.02934491 0 12 C-0.66 12 -1.32 12 -2 12 C-2.33 12.66 -2.66 13.32 -3 14 C-2.68872484 12.41642541 -2.37592711 10.83315007 -2.0625 9.25 C-1.80146484 7.92742187 -1.80146484 7.92742187 -1.53515625 6.578125 C-1.07631512 4.36764947 -0.56663926 2.18487932 0 0 Z " fill="#089A97" transform="translate(108,60)"/>
<path d="M0 0 C2 2 2 2 2.125 5.125 C2.08375 6.07375 2.0425 7.0225 2 8 C1.01 8.33 0.02 8.66 -1 9 C-1.33 9.66 -1.66 10.32 -2 11 C-1 3.57142857 -1 3.57142857 0 0 Z " fill="#129DB7" transform="translate(21,370)"/>
<path d="M0 0 C1.25127906 3.54667178 0.72285053 5.72253438 -0.4375 9.25 C-0.72496094 10.14203125 -1.01242187 11.0340625 -1.30859375 11.953125 C-1.53675781 12.62859375 -1.76492188 13.3040625 -2 14 C-2.33 14 -2.66 14 -3 14 C-3.125 6.375 -3.125 6.375 -2 3 C-1.34 3 -0.68 3 0 3 C0 2.01 0 1.02 0 0 Z " fill="#128DBC" transform="translate(427,319)"/>
<path d="M0 0 C0.33 0 0.66 0 1 0 C1.21755666 5.4389165 1.10428384 9.87080814 -1 15 C-1.66 14.67 -2.32 14.34 -3 14 C-2.40380045 9.13103697 -1.43023178 4.67209049 0 0 Z " fill="#1BE3D0" transform="translate(68,208)"/>
<path d="M0 0 C0.66 0 1.32 0 2 0 C2.21192221 5.19209404 1.5912689 9.126739 0 14 C-1.03115279 10.73086376 -0.9638984 8.13958652 -0.5625 4.75 C-0.46066406 3.85796875 -0.35882813 2.9659375 -0.25390625 2.046875 C-0.17011719 1.37140625 -0.08632813 0.6959375 0 0 Z " fill="#0D8FA9" transform="translate(483,113)"/>
<path d="M0 0 C0.33 0 0.66 0 1 0 C1.29341888 5.67276511 1.00559652 8.99067246 -2 14 C-3.21065165 10.36804504 -2.62784815 8.93468371 -1.5625 5.3125 C-1.27503906 4.31863281 -0.98757812 3.32476562 -0.69140625 2.30078125 C-0.46324219 1.54152344 -0.23507813 0.78226563 0 0 Z " fill="#0A9896" transform="translate(112,46)"/>
<path d="M0 0 C0.66 0 1.32 0 2 0 C2.8125 2.6875 2.8125 2.6875 3 6 C0.5625 8.875 0.5625 8.875 -2 11 C-2.33 10.01 -2.66 9.02 -3 8 C-2.01 8 -1.02 8 0 8 C0 5.36 0 2.72 0 0 Z " fill="#1BB1D1" transform="translate(148,384)"/>
<path d="M0 0 C0.99 0.33 1.98 0.66 3 1 C3 1.66 3 2.32 3 3 C5.64 3.33 8.28 3.66 11 4 C10.34 4.66 9.68 5.32 9 6 C5.80325755 5.79595261 3.69410403 5.53214642 1.125 3.5625 C0 2 0 2 0 0 Z " fill="#19ADC5" transform="translate(324,227)"/>
<path d="M0 0 C1.32 0.33 2.64 0.66 4 1 C3.67 2.98 3.34 4.96 3 7 C2.01 7 1.02 7 0 7 C-0.66 5.68 -1.32 4.36 -2 3 C-1.34 3 -0.68 3 0 3 C0 2.01 0 1.02 0 0 Z " fill="#1AE1D7" transform="translate(299,204)"/>
<path d="M0 0 C2.75 0.25 2.75 0.25 5 1 C3.68 1.33 2.36 1.66 1 2 C0.67 3.32 0.34 4.64 0 6 C-1.32 5.34 -2.64 4.68 -4 4 C-2.3125 1.9375 -2.3125 1.9375 0 0 Z " fill="#1DD6FC" transform="translate(372,490)"/>
<path d="M0 0 C0.33 0 0.66 0 1 0 C1.16682272 4.92127034 1.24828052 8.50343896 -1 13 C-1.33 13 -1.66 13 -2 13 C-1.85851011 11.3954444 -1.71164314 9.79136233 -1.5625 8.1875 C-1.48128906 7.29417969 -1.40007812 6.40085937 -1.31640625 5.48046875 C-1 3 -1 3 0 0 Z " fill="#18A3C4" transform="translate(188,332)"/>
<path d="M0 0 C2 3 2 3 2 5 C1.34 5 0.68 5 0 5 C0.04125 5.7425 0.0825 6.485 0.125 7.25 C-0.00398134 10.08758952 -0.57051222 11.58773938 -2 14 C-3.25127906 10.45332822 -2.72285053 8.27746562 -1.5625 4.75 C-1.27503906 3.85796875 -0.98757812 2.9659375 -0.69140625 2.046875 C-0.46324219 1.37140625 -0.23507813 0.6959375 0 0 Z " fill="#12E6DC" transform="translate(204,283)"/>
<path d="M0 0 C0.33 0 0.66 0 1 0 C1.33 3.63 1.66 7.26 2 11 C1.01 10.67 0.02 10.34 -1 10 C-1.02689216 8.52093108 -1.04634621 7.04172517 -1.0625 5.5625 C-1.07410156 4.73878906 -1.08570313 3.91507813 -1.09765625 3.06640625 C-1 1 -1 1 0 0 Z " fill="#23D0DA" transform="translate(324,217)"/>
<path d="M0 0 C0.66 0 1.32 0 2 0 C1.25 6.625 1.25 6.625 -1 10 C-1.66 9.67 -2.32 9.34 -3 9 C-2.67 7.68 -2.34 6.36 -2 5 C-1.34 5 -0.68 5 0 5 C0 3.35 0 1.7 0 0 Z " fill="#1DDDDC" transform="translate(299,212)"/>
<path d="M0 0 C1.25127906 3.54667178 0.72285053 5.72253438 -0.4375 9.25 C-0.72496094 10.14203125 -1.01242187 11.0340625 -1.30859375 11.953125 C-1.53675781 12.62859375 -1.76492188 13.3040625 -2 14 C-2.33 14 -2.66 14 -3 14 C-3.34615998 8.34605369 -2.43425238 4.96993194 0 0 Z " fill="#1DDED2" transform="translate(322,133)"/>
<path d="M0 0 C0.99 0 1.98 0 3 0 C2.53199289 4.05606165 2.12046792 7.46588679 0 11 C0 9.68 0 8.36 0 7 C-0.66 6.67 -1.32 6.34 -2 6 C-1.34 6 -0.68 6 0 6 C0 4.02 0 2.04 0 0 Z " fill="#0D9CAE" transform="translate(303,198)"/>
<path d="M0 0 C0.66 0.66 1.32 1.32 2 2 C1.625 5.125 1.625 5.125 1 8 C-0.32 7.67 -1.64 7.34 -3 7 C-1.125 2.25 -1.125 2.25 0 0 Z " fill="#11EACB" transform="translate(333,89)"/>
<path d="M0 0 C0.66 0.66 1.32 1.32 2 2 C1.625 5.125 1.625 5.125 1 8 C0.34 8 -0.32 8 -1 8 C-1.33 8.99 -1.66 9.98 -2 11 C-1 3.57142857 -1 3.57142857 0 0 Z " fill="#0F93B7" transform="translate(35,320)"/>
<path d="M0 0 C1.4540625 0.0309375 1.4540625 0.0309375 2.9375 0.0625 C0.32235683 2.18288635 -2.25887616 4.19341744 -5.0625 6.0625 C-3.98897059 0.08140756 -3.98897059 0.08140756 0 0 Z " fill="#0FC0AA" transform="translate(129.0625,4.9375)"/>
<path d="M0 0 C1.46726798 3.81489674 0.43336419 6.29011622 -1 10 C-1.99 9.67 -2.98 9.34 -4 9 C-3.71125 8.443125 -3.4225 7.88625 -3.125 7.3125 C-1.9586747 4.91505355 -0.9660119 2.48403061 0 0 Z " fill="#0C9BB0" transform="translate(300,216)"/>
<path d="M0 0 C1.46726798 3.81489674 0.43336419 6.29011622 -1 10 C-1.33 10 -1.66 10 -2 10 C-2.25 3.375 -2.25 3.375 0 0 Z " fill="#158BC0" transform="translate(402,408)"/>
<path d="M0 0 C0.33 0 0.66 0 1 0 C1.25 6.625 1.25 6.625 -1 10 C-1.9765625 3.9453125 -1.9765625 3.9453125 -2 2 C-1.34 1.34 -0.68 0.68 0 0 Z " fill="#12A4B3" transform="translate(307,188)"/>
<path d="M0 0 C0.66 0.33 1.32 0.66 2 1 C0.6875 3.5 0.6875 3.5 -1 6 C-1.99 6 -2.98 6 -4 6 C-2.84826645 3.53199953 -1.95216435 1.95216435 0 0 Z " fill="#12ACB3" transform="translate(357,104)"/>
<path d="M0 0 C1.9375 0.6875 1.9375 0.6875 4 2 C4.75 4.625 4.75 4.625 5 7 C4.67 6.34 4.34 5.68 4 5 C3.01 5 2.02 5 1 5 C0.67 3.35 0.34 1.7 0 0 Z " fill="#11BCAF" transform="translate(350,5)"/>
<path d="M0 0 C2 1 2 1 3.125 4.0625 C3.41375 5.031875 3.7025 6.00125 4 7 C3.01 7 2.02 7 1 7 C0.34 5.02 -0.32 3.04 -1 1 C-0.67 0.67 -0.34 0.34 0 0 Z " fill="#16A8B5" transform="translate(65,222)"/>
<path d="M0 0 C1.1875 1.625 1.1875 1.625 2 4 C0.625 7.25 0.625 7.25 -1 10 C-2.46726798 6.18510326 -1.43336419 3.70988378 0 0 Z " fill="#1DDDDB" transform="translate(330,194)"/>
<path d="M0 0 C1.04005702 3.38018531 1.08004482 6.4780279 1 10 C0.01 10.33 -0.98 10.66 -2 11 C-1.125 3.375 -1.125 3.375 0 0 Z " fill="#05839E" transform="translate(73,185)"/>
<path d="M0 0 C0.33 0 0.66 0 1 0 C1.36923077 7.50769231 1.36923077 7.50769231 -0.5 10 C-0.995 10.33 -1.49 10.66 -2 11 C-1 3.57142857 -1 3.57142857 0 0 Z " fill="#06848E" transform="translate(102,81)"/>
</svg>
